# xmcd
#
# Track frame offsets: 
#        150
#        17642
#        34207
#        61472
#        76355
#        97542
#        118747
#        135792
#        147920
#        167955
#        183892
#        197267
#        215120
#        226537
#
# Disc length: 3270 seconds
#
# Revision: 0
# Processed by: cddbd v1.5.1PL0 Copyright (c) Steve Scherf et al.
# Submitted via: ExactAudioCopy v0.95a4
#
DISCID=ad0cc40e
DTITLE=Black Cat Bone Blues Band - Like a hound dog needs a bone
DYEAR=1991
DGENRE=Blues
TTITLE0=You're so fine
TTITLE1=Blow wind blow
TTITLE2=Cold cold feeling
TTITLE3=The misfit
TTITLE4=I ain't drunk
TTITLE5=Nightlife
TTITLE6=T-Bone Boogie
TTITLE7=Cut that out
TTITLE8=Just a little love
TTITLE9=One more chance with you
TTITLE10=Person to person
TTITLE11=Woke up this morning
TTITLE12=Introduction
TTITLE13=Talking Woman
EXTD=
EXTT0=
EXTT1=
EXTT2=
EXTT3=
EXTT4=
EXTT5=
EXTT6=
EXTT7=
EXTT8=
EXTT9=
EXTT10=
EXTT11=
EXTT12=
EXTT13=
PLAYORDER=
